<svg xmlns="http://www.w3.org/2000/svg" version="1.1" xmlns:xlink="http://www.w3.org/1999/xlink" xmlns:svgjs="http://svgjs.dev/svgjs" width="1000" height="1000" viewBox="0 0 1000 1000"><rect width="1000" height="1000" fill="#f9e17e"></rect><g transform="matrix(0.7,0,0,0.7,150,106.25)"><svg viewBox="0 0 320 360" data-background-color="#f9e17e" preserveAspectRatio="xMidYMid meet" height="1125" width="1000" xmlns="http://www.w3.org/2000/svg" xmlns:xlink="http://www.w3.org/1999/xlink"><g id="tight-bounds" transform="matrix(1,0,0,1,0,0)"><svg viewBox="0 0 320 360" height="360" width="320"><g><svg></svg></g><g><svg viewBox="0 0 320 360" height="360" width="320"><g><path xmlns="http://www.w3.org/2000/svg" d="M219.58 41.008c0.707 0 6.365 2.829 9.547 3.89-1.061 0.354-3.536-0.707-6.365-1.768 0.707 0 2.122 0.354 3.536 1.06-0.707-0.707-6.011-2.475-6.718-3.182M166.895 30.047c1.061-0.354 13.436 1.414 19.094 1.768 0.354-0.354-0.707-0.354-2.122-0.707 1.768-0.354 5.304 0.707 7.779 1.06-7.425 0.354-15.558-1.768-22.629-1.06-2.475 0-0.707-0.707-2.122-1.061M156.641 30.047c6.365 0 11.315 0 2.121 0.707-1.061-0.354-2.475-0.354-2.121-0.707M256.707 59.395c0.707 0 3.536 3.182 4.95 4.243-0.354 0.354-3.182-2.475-4.596-3.536 0.354 0.354 0 0-0.354-0.707M249.635 54.798c-2.829-2.475-3.889-2.475-4.243-3.889 2.475 1.414 4.243 2.829 4.243 3.889M204.022 32.522c0.354-0.354 1.061 0.354 2.829 0.707-2.122-0.354-1.768 0-1.061 0.707-2.475-0.354-3.182-0.707-2.475-1.414 1.414 0.707 1.768 0.354 0.707 0M103.602 36.765c0-0.354 1.414-1.061 2.475-1.414-1.061 0.707-0.707 1.061 1.061 0.353 0 0.354-2.122 1.061-3.536 1.768 0.707-0.354 1.414-1.414 0-0.707M211.094 28.986c-1.061 0.354-4.95-1.768-8.84-2.475-2.122-0.707 8.486 1.768 8.84 2.475M2.475 203.66c2.122 8.84 0.707 8.486 0 0M2.829 150.621c0.354-1.414 0.707-5.304 1.06-4.95-1.061 8.486-2.829 12.376-3.182 18.74 1.061-5.657-0.354 3.182-0.707 5.304 0.354 2.829 0.354-1.768 1.061-1.06 0.707 1.061-1.414 15.912-0.707 7.779-0.707 7.425 0 15.558 1.414 17.679-1.768 11.315 7.072 36.773 8.84 42.077 0.354 0.354 0-1.768 0.707-0.353 0.707 4.597 3.889 7.779 4.95 12.729 1.061 1.414 5.304 9.193 6.011 10.962 1.414 2.829 2.122 2.475 3.536 5.303 4.243 8.133 10.961 15.912 17.326 23.337 20.508 24.044 51.978 43.845 86.984 50.918 35.006 7.425 71.779 2.122 100.419-11.669 1.768-1.061 1.414-1.414 3.536-2.122 9.901-3.182 21.923-13.436 28.641-17.326 3.182-3.536 11.669-9.547 12.73-13.082 6.011-4.95 12.022-13.083 15.204-18.387 1.768-2.829 3.182-2.829 3.889-4.597-0.354 0 5.657-7.425 7.426-11.668-0.707 0-1.768 2.122-1.768 0 12.729-24.398 19.801-57.282 15.911-79.912 0.707 27.934-6.365 59.05-19.801 78.851-6.011 12.729-18.387 26.519-29.701 36.42-1.768 1.768-3.536 3.889-5.658 5.304-6.718 5.657-14.144 10.254-21.922 14.497-18.387 10.254-38.895 19.094-62.94 19.447 41.37-3.536 78.497-24.398 99.006-49.856-15.558 15.204-22.276 21.215-39.602 30.055-1.414 2.475-13.083 7.425-20.862 9.547 4.597-2.122 14.144-5.657 17.326-8.486-25.812 12.376-54.453 19.448-81.326 15.558 10.254 0 24.751 0.354 38.541-2.121 2.122-0.707 3.182-1.414 5.658-1.768 26.873-6.011 52.685-19.094 71.072-37.481-10.608 9.547-26.519 20.862-36.774 24.398 9.547-5.304 26.873-15.558 32.53-23.337-11.315 11.315-32.53 22.63-45.966 27.58-2.122 0.354 1.414-1.414-2.122 0-4.243 1.061-2.475 1.061-3.536 1.768-16.265 4.597-35.006 8.486-50.563 7.072-2.829-0.354-3.889-1.061-6.365-1.061-2.829-0.354-5.304-0.354-8.486-0.354-12.376-1.414-25.812-6.365-35.713-10.607-5.304-2.475-10.608-4.243-15.912-7.426-4.243-2.475-7.779-5.304-11.314-8.132-13.436-9.901-24.751-19.801-35.36-33.945-19.094-26.519-28.994-59.757-27.58-92.641 1.414-32.884 14.497-65.061 35.359-88.752-1.061 1.061 1.414-2.475 3.536-4.596 0 0.707-0.354 1.768 2.122-0.707 2.122-2.475-0.707-0.707 0.353-2.122 21.923-24.044 60.111-43.492 99.36-44.199 1.414-1.061 3.889-2.475 6.718-1.768 0 0.354-1.768 0.354-1.768 0.354 3.889-0.354 7.425-0.354 9.193 0.353 0.354-0.354-1.414-0.707 0-0.707 2.475 0.707 3.182 0 4.597 0.707-1.061 0-2.122 0-2.829 0.354 8.84 0 14.497 2.122 23.337 2.829-4.597-1.061-5.657-1.061-9.193-2.122 3.889 0.707 5.657 1.414 7.425 1.061-0.707 0-0.354-1.061 0.354-0.707 7.072 1.768 7.779 2.475 15.204 4.95 0.707-0.707-3.182-1.061-4.243-2.122 7.072 2.475 13.436 4.243 17.68 7.072-1.414-1.061-5.657-2.475-8.84-3.889-0.354 0.354 1.061 0.707 1.414 1.414-3.536-1.768-8.486-3.536-13.436-4.243 4.243 1.061 7.072 2.475 8.84 3.182-3.889-0.707-8.84-3.182-14.498-4.243 9.193 2.829 26.519 9.193 37.127 14.851-3.889-2.475-8.486-4.243-10.961-5.657 2.122 0.354 4.597 1.768 4.597 1.06 2.475 1.061 5.657 3.536 7.425 3.89-3.182-2.122-9.547-5.304-11.668-6.365 26.519 12.022 50.21 32.177 65.414 57.989 1.414 2.475 3.536 8.133 5.304 8.84-0.354-1.768-1.768-2.829-3.182-5.657 0.707 0 0.707-1.061 0-2.122-1.414-1.768 0 1.414-1.415-0.354-6.365-11.669-14.144-21.923-26.165-33.237 6.718 6.365 1.768 1.768 0.353-0.354 9.193 8.133 19.801 21.923 24.398 28.995-0.707-1.061-1.061-1.768-0.707-1.768 8.486 14.497 13.79 27.58 19.094 46.32 0.354 0.354 0-1.414 0.707-0.353 3.536 14.851 4.597 27.227 4.243 38.541 2.829-19.094-3.536-48.796-14.851-72.133-1.414-2.829-1.414-0.707-2.829-3.889 0-1.061-1.061-3.182-1.768-4.597-14.144-23.337-31.47-39.956-51.978-53.038 1.414 0.707 4.243 2.829 4.244 2.475-38.188-25.105-82.387-28.641-118.807-20.862-2.475 1.061-3.536 2.122-6.365 3.536 5.304-1.768 8.486-2.122 13.437-3.183 1.061-1.061-4.597 0.354-2.122-0.707 0.354 0.354 4.95-0.707 6.011-0.353 0 0.354-1.414 0.707-1.768 1.06 11.669-2.475 23.691-2.829 33.945-2.121-6.011 0.354-16.972-0.707-20.508 1.061 3.536-0.354 8.486-0.707 11.668-0.354-4.243 0-12.022 0.354-15.558 0.707-0.354-0.354 5.657-1.061 1.768-1.06-1.768 0.354-4.597 0.354-5.657 1.414-30.409 2.829-60.111 18.74-80.973 37.481-4.243 3.536-9.193 7.425-12.375 11.314-7.779 8.84-12.729 17.68-18.387 25.459 3.536-7.425 11.315-18.74 20.508-28.287 9.193-9.547 19.094-17.68 24.398-21.923 0 1.414 8.486-5.304 11.669-7.425-2.122 1.768 1.414-0.707 2.121-0.354 11.315-6.718 20.508-9.193 30.763-13.083-2.475 0.707-4.597 1.414-4.951 1.061 2.475-0.707 3.889-1.414 3.536-1.768-9.901 2.829-25.459 9.547-37.834 16.972 22.276-15.204 50.564-24.398 78.497-24.751 27.934-0.707 55.16 6.365 76.729 17.68 14.497 6.365 28.287 18.033 39.249 29.348 3.182 2.829 0.707-0.707 5.304 4.243-1.414-0.707-2.475-1.414-0.707 0.707 2.829 3.182-0.707-2.475 3.889 3.182-0.354 0-1.768-1.768-1.768-1.061 12.376 10.961 21.923 30.762 27.58 43.846-1.414-5.304-4.95-12.729-7.779-18.033 8.486 15.558 11.315 24.751 14.851 38.541 1.414 1.061-0.707-4.95 0.707-2.121 0.354 2.122 0.707 8.84 2.122 9.9-1.061-6.718-2.829-14.851-4.243-16.265 1.061 0.707-1.768-8.133-3.536-10.254-0.707-5.657-5.657-15.558-9.901-22.984-15.204-29.702-42.431-54.099-72.839-67.536 0-0.707-1.768-1.414-2.476-2.121-30.055-12.729-66.122-16.265-100.773-8.133-35.006 8.486-67.889 28.641-91.227 57.636 1.061-3.536 9.901-10.254 10.255-13.083-10.254 10.961-21.215 25.459-28.641 41.016-7.779 15.558-12.022 31.47-13.79 43.138" fill="#454545" fill-rule="nonzero" stroke="none" stroke-width="1" stroke-linecap="butt" stroke-linejoin="miter" stroke-miterlimit="10" stroke-dasharray="" stroke-dashoffset="0" font-family="none" font-weight="none" font-size="none" text-anchor="none" style="mix-blend-mode: normal" data-fill-palette-color="tertiary"></path></g><g transform="matrix(1,0,0,1,58.885832468173774,90)"><svg viewBox="0 0 202.22833506365245 180" height="180" width="202.22833506365245"><g><svg viewBox="0 0 225.11999999999995 200.37548144401032" height="180" width="202.22833506365245"><g><rect width="225.11999999999995" height="4.408321375519169" x="0" y="111.84647096521226" fill="#454545" opacity="1" stroke-width="0" stroke="transparent" fill-opacity="1" class="rect-o-0" data-fill-palette-color="primary" rx="1%" id="o-0" data-palette-color="#454545"></rect></g><g transform="matrix(1,0,0,1,0.5599999999999881,127.79490065360883)"><svg viewBox="0 0 223.99999999999997 72.58058079040148" height="72.58058079040148" width="223.99999999999997"><g id="textblocktransform"><svg viewBox="0 0 223.99999999999997 72.58058079040148" height="72.58058079040148" width="223.99999999999997" id="textblock"><g><svg viewBox="0 0 223.99999999999997 48.88302204746524" height="48.88302204746524" width="223.99999999999997"><g transform="matrix(1,0,0,1,0,0)"><svg width="223.99999999999997" viewBox="2.640000104904175 -37.380001068115234 170.8199920654297 37.94000244140625" height="48.88302204746524" data-palette-color="#454545"><g class="wordmark-text-0" data-fill-palette-color="primary" id="text-0"><path d="M3.22-36.82L34.33-36.82 34.91-28.98 32.71-28.98 31.47-33.86 21.04-33.86 21.04-2.64 26.42-2.08 26.42 0 11.16 0 11.16-2.08 16.48-2.64 16.48-33.86 6.1-33.86 4.79-28.98 2.64-28.98 3.22-36.82ZM44.25-4.74Q41.87-7.2 40.63-10.56 39.4-13.92 39.4-17.35 39.4-20.78 40.09-23.41 40.77-26.05 41.98-28.22 43.19-30.4 44.88-32.1 46.58-33.81 48.61-34.99L48.61-34.99Q52.73-37.38 57.44-37.38 62.16-37.38 65.62-36 69.09-34.62 71.46-32.2L71.46-32.2Q76.27-27.29 76.27-19.31L76.27-19.31Q76.27-10.42 70.87-4.81L70.87-4.81Q68.38-2.22 65.07-0.83 61.77 0.56 57.68 0.56 53.59 0.56 50.11-0.85 46.63-2.27 44.25-4.74ZM47.82-29.93Q46.04-27.86 45.08-25.1 44.11-22.34 44.11-19.7 44.11-17.07 44.5-14.97 44.89-12.87 45.66-11 46.43-9.13 47.59-7.54 48.75-5.96 50.29-4.81L50.29-4.81Q53.56-2.37 58.01-2.37L58.01-2.37Q64.08-2.37 67.89-6.49L67.89-6.49Q71.63-10.55 71.63-17.07L71.63-17.07Q71.63-24.24 68.38-29L68.38-29Q64.67-34.45 57.54-34.45L57.54-34.45Q51.66-34.45 47.82-29.93L47.82-29.93Z" fill="#454545" data-fill-palette-color="primary"></path><path d="M100-2.64L100-34.18 96.21-34.74 96.21-36.82 111.89-36.82Q121.58-36.82 126.98-32.08L126.98-32.08Q132.25-27.42 132.25-19.31L132.25-19.31Q132.25-13.48 129.54-8.89L129.54-8.89Q127.05-4.66 122.63-2.29L122.63-2.29Q118.33 0 113.38 0L113.38 0 96.21 0 96.21-2.08 100-2.64ZM111.77-33.86L104.51-33.86 104.51-2.93 113.33-2.93Q119.46-2.93 123.48-6.79L123.48-6.79Q127.63-10.82 127.63-17.31L127.63-17.31Q127.63-29.74 118.94-32.81L118.94-32.81Q115.94-33.86 111.77-33.86L111.77-33.86ZM141.44-4.74Q139.06-7.2 137.83-10.56 136.59-13.92 136.59-17.35 136.59-20.78 137.28-23.41 137.96-26.05 139.17-28.22 140.38-30.4 142.07-32.1 143.77-33.81 145.8-34.99L145.8-34.99Q149.92-37.38 154.63-37.38 159.35-37.38 162.81-36 166.28-34.62 168.65-32.2L168.65-32.2Q173.46-27.29 173.46-19.31L173.46-19.31Q173.46-10.42 168.06-4.81L168.06-4.81Q165.57-2.22 162.26-0.83 158.96 0.56 154.87 0.56 150.78 0.56 147.3-0.85 143.82-2.27 141.44-4.74ZM145.02-29.93Q143.23-27.86 142.27-25.1 141.3-22.34 141.3-19.7 141.3-17.07 141.69-14.97 142.09-12.87 142.85-11 143.62-9.13 144.78-7.54 145.94-5.96 147.48-4.81L147.48-4.81Q150.75-2.37 155.2-2.37L155.2-2.37Q161.27-2.37 165.08-6.49L165.08-6.49Q168.82-10.55 168.82-17.07L168.82-17.07Q168.82-24.24 165.57-29L165.57-29Q161.86-34.45 154.73-34.45L154.73-34.45Q148.85-34.45 145.02-29.93L145.02-29.93Z" fill="#454545" data-fill-palette-color="primary"></path></g></svg></g></svg></g><g transform="matrix(1,0,0,1,42.78399999999999,60.42313036034264)"><svg viewBox="0 0 138.432 12.15745043005885" height="12.15745043005885" width="138.432"><g transform="matrix(1,0,0,1,0,0)"><svg width="138.432" viewBox="2.299999952316284 -37.099998474121094 441.75 38.79999923706055" height="12.15745043005885" data-palette-color="#454545"><path d="M27.5 1.7Q23.55-4.5 19.83-10.1 16.1-15.7 13.7-19.18 11.3-22.65 10.65-23.55L10.65-23.55 10.3-23.55 10.1-4.75Q10.15-3.55 10.5-3.1 10.85-2.65 11.75-2.65L11.75-2.65 14.15-2.7 14.3-2.45 13.85 0.2Q13.25 0.15 11.55 0.08 9.85 0 8.05 0L8.05 0Q6.6 0 4.93 0.18 3.25 0.35 2.75 0.4L2.75 0.4 3.05-2.35Q4.6-2.55 5.33-3.28 6.05-4 6.1-5.5L6.1-5.5 6.75-26.45Q6.75-28 5.88-28.65 5-29.3 2.5-29.55L2.5-29.55 2.3-29.9 2.65-32.2Q3.15-32.15 4.8-32.05 6.45-31.95 7.6-31.95L7.6-31.95Q8.75-31.95 9.98-32.02 11.2-32.1 11.55-32.15L11.55-32.15Q14.9-26.85 18.32-21.75 21.75-16.65 24.03-13.35 26.3-10.05 26.9-9.2L26.9-9.2 27.25-9.2 27.2-27.15Q27.2-29.3 25.55-29.3L25.55-29.3 23.75-29.25 23.6-29.55 24-32.15Q24.6-32.1 26.2-32.02 27.8-31.95 29.5-31.95L29.5-31.95Q30.9-31.95 32.63-32.1 34.35-32.25 34.85-32.3L34.85-32.3 34.6-29.55Q32.9-29.3 32.13-28.58 31.35-27.85 31.3-26.4L31.3-26.4 30.6 1.05 27.5 1.7ZM46.95 0.6Q43.95 0.6 41.67-0.83 39.4-2.25 38.12-4.8 36.85-7.35 36.85-10.65L36.85-10.65Q36.85-14.3 38.37-17.2 39.9-20.1 42.6-21.75 45.3-23.4 48.65-23.4L48.65-23.4Q51.65-23.4 53.95-22 56.25-20.6 57.5-18.05 58.75-15.5 58.75-12.15L58.75-12.15Q58.75-8.5 57.22-5.6 55.7-2.7 53-1.05 50.3 0.6 46.95 0.6L46.95 0.6ZM48.15-2.45Q50.65-2.45 52.07-4.48 53.5-6.5 53.5-10.15L53.5-10.15Q53.5-14.75 51.82-17.4 50.15-20.05 47.3-20.05L47.3-20.05Q44.8-20.05 43.4-18 42-15.95 42-12.3L42-12.3Q42-7.7 43.67-5.08 45.35-2.45 48.15-2.45L48.15-2.45ZM80.09 0.6Q76.59 0.6 75.09-0.83 73.59-2.25 73.59-5.5L73.59-5.5 73.59-17.3Q73.59-18.75 73.02-19.28 72.44-19.8 70.79-19.85L70.79-19.85 70.49-20.2 70.74-22.1Q72.39-22.9 73.99-24 75.59-25.1 76.64-25.93 77.69-26.75 77.94-27L77.94-27 79.14-26.5Q79.09-26.25 78.94-25.23 78.79-24.2 78.64-22.45L78.64-22.45 85.34-22.6 85.54-22.45 85.04-19.45 78.44-19.6Q78.09-14.25 78.09-7.85L78.09-7.85Q78.09-5.5 78.92-4.48 79.74-3.45 81.69-3.45L81.69-3.45Q82.39-3.45 83.09-3.65 83.79-3.85 84.27-4.05 84.74-4.25 84.89-4.3L84.89-4.3 85.44-2.85Q85.14-2.6 84.12-1.78 83.09-0.95 81.89-0.18 80.69 0.6 80.09 0.6L80.09 0.6ZM98.79 0.6Q93.79 0.6 90.84-2.48 87.89-5.55 87.89-10.65L87.89-10.65Q87.89-14.1 89.42-17.03 90.94-19.95 93.56-21.68 96.19-23.4 99.29-23.4L99.29-23.4Q103.19-23.4 105.19-21.43 107.19-19.45 107.19-15.6L107.19-15.6Q107.19-14.05 106.89-12.95L106.89-12.95 106.24-12.4 92.84-12.4Q92.84-8.1 94.67-5.8 96.49-3.5 99.84-3.5L99.84-3.5Q102.64-3.5 105.84-5L105.84-5 106.14-4.85 106.84-2.95Q105.04-1.6 102.74-0.5 100.44 0.6 98.79 0.6L98.79 0.6ZM92.94-14.65L100.99-15.05Q101.64-15.1 101.87-15.35 102.09-15.6 102.09-16.3L102.09-16.3Q102.09-18.2 101.14-19.23 100.19-20.25 98.39-20.25L98.39-20.25Q96.24-20.25 94.77-18.78 93.29-17.3 92.94-14.65L92.94-14.65ZM130.19 0.6Q127.19 0.6 124.91-0.83 122.64-2.25 121.36-4.8 120.09-7.35 120.09-10.65L120.09-10.65Q120.09-14.3 121.61-17.2 123.14-20.1 125.84-21.75 128.53-23.4 131.88-23.4L131.88-23.4Q134.88-23.4 137.19-22 139.49-20.6 140.74-18.05 141.99-15.5 141.99-12.15L141.99-12.15Q141.99-8.5 140.46-5.6 138.94-2.7 136.24-1.05 133.53 0.6 130.19 0.6L130.19 0.6ZM131.38-2.45Q133.88-2.45 135.31-4.48 136.74-6.5 136.74-10.15L136.74-10.15Q136.74-14.75 135.06-17.4 133.38-20.05 130.53-20.05L130.53-20.05Q128.03-20.05 126.64-18 125.23-15.95 125.23-12.3L125.23-12.3Q125.23-7.7 126.91-5.08 128.59-2.45 131.38-2.45L131.38-2.45ZM144.78 0.55L145.08-2Q146.33-2.3 146.91-2.85 147.48-3.4 147.61-4.23 147.73-5.05 147.73-6.75L147.73-6.75 147.73-30.65Q147.73-32.25 147.36-32.8 146.98-33.35 145.78-33.35L145.78-33.35Q145.08-33.35 144.63-33.3L144.63-33.3 144.43-33.45 144.68-35.6Q149.18-36.15 153.33-37.1L153.33-37.1 153.63-36.3Q153.03-35.1 152.61-25.85 152.18-16.6 152.18-5.05L152.18-5.05Q152.18-3.7 152.56-3.1 152.93-2.5 153.83-2.5L153.83-2.5 155.53-2.6 155.63-2.35 155.18 0.15Q154.53 0.15 154.13 0.1L154.13 0.1Q151.63 0 150.18 0L150.18 0Q147.98 0 144.78 0.55L144.78 0.55ZM164.88 0.8Q164.18-1.55 162.11-8.47 160.03-15.4 159.18-17.95L159.18-17.95Q158.33-20.45 155.88-20.5L155.88-20.5 155.78-20.7 156.13-22.85 160.53-22.8Q162.48-22.8 164.41-22.95 166.33-23.1 166.88-23.15L166.88-23.15 166.98-22.9 166.63-20.75Q164.98-20.65 164.46-20.4 163.93-20.15 163.93-19.45L163.93-19.45Q163.93-18.6 165.48-12.78 167.03-6.95 167.63-4.9L167.63-4.9 167.98-4.9Q168.73-6.85 168.98-7.4L168.98-7.4Q171.43-13.7 172.33-16.18 173.23-18.65 173.23-19.35L173.23-19.35Q173.23-20 172.83-20.23 172.43-20.45 171.28-20.45L171.28-20.45 169.63-20.45 169.43-20.75 169.73-22.85 175.18-22.8 179.48-22.85 179.08-20.5Q177.98-20.3 177.46-19.68 176.93-19.05 176.08-17.1L176.08-17.1 169.33 0 164.88 0.8ZM180.88 0.6L181.18-1.95Q182.68-2.35 183.33-3.08 183.98-3.8 183.98-5.15L183.98-5.15 183.98-17Q183.98-18.45 183.53-19.1 183.08-19.75 182.03-19.75L182.03-19.75Q181.73-19.75 181.33-19.68 180.93-19.6 180.83-19.55L180.83-19.55 181.03-21.85Q183.48-22.2 186-22.73 188.53-23.25 189.28-23.4L189.28-23.4 189.63-22.7Q189.13-21.65 188.8-16.48 188.48-11.3 188.48-5.05L188.48-5.05Q188.48-3.7 188.85-3.13 189.23-2.55 190.13-2.55L190.13-2.55Q190.63-2.55 191.1-2.6 191.58-2.65 191.73-2.65L191.73-2.65 191.83-2.4 191.43 0.15Q190.93 0.1 189.5 0.05 188.08 0 186.48 0L186.48 0Q185.08 0 183.25 0.25 181.43 0.5 180.88 0.6L180.88 0.6ZM185.88-28.55Q184.48-28.55 183.73-29.4 182.98-30.25 182.98-31.55L182.98-31.55Q182.98-33.05 183.93-34.02 184.88-35 186.38-35L186.38-35Q187.73-35 188.5-34.15 189.28-33.3 189.28-32L189.28-32Q189.28-30.5 188.33-29.53 187.38-28.55 185.88-28.55L185.88-28.55ZM215.68 0.6Q211.53 0.6 210.98-2.95L210.98-2.95 210.63-3.1Q205.53 0.45 204.58 0.45L204.58 0.45Q200.23 0.45 197.6-2.5 194.98-5.45 194.98-10.3L194.98-10.3Q194.98-13.9 196.65-16.9 198.33-19.9 201.2-21.63 204.08-23.35 207.53-23.35L207.53-23.35Q208.78-23.35 210.58-23.2L210.58-23.2 210.58-30.65Q210.58-32.1 210.13-32.75 209.68-33.4 208.63-33.4L208.63-33.4Q208.28-33.4 207.88-33.33 207.48-33.25 207.38-33.2L207.38-33.2 207.63-35.55Q210.13-35.85 212.78-36.38 215.43-36.9 216.18-37.1L216.18-37.1 216.53-36.35Q215.93-35.45 215.48-26.2 215.03-16.95 215.03-5.85L215.03-5.85Q215.03-4.85 215.53-4.25 216.03-3.65 216.88-3.65L216.88-3.65Q217.53-3.65 218.13-3.9 218.73-4.15 219.1-4.4 219.48-4.65 219.58-4.75L219.58-4.75 220.33-3.8Q220.18-3.5 219.53-2.6 218.88-1.7 217.85-0.73 216.83 0.25 215.68 0.6L215.68 0.6ZM205.88-3.45Q206.83-3.45 207.88-3.95 208.93-4.45 209.65-4.98 210.38-5.5 210.58-5.65L210.58-5.65 210.58-18.85Q210.43-18.95 209.88-19.2 209.33-19.45 208.38-19.68 207.43-19.9 206.23-19.9L206.23-19.9Q203.33-19.9 201.65-17.8 199.98-15.7 199.98-12.05L199.98-12.05Q199.98-9.6 200.75-7.63 201.53-5.65 202.85-4.55 204.18-3.45 205.88-3.45L205.88-3.45ZM232.72 0.6Q227.72 0.6 224.77-2.48 221.82-5.55 221.82-10.65L221.82-10.65Q221.82-14.1 223.35-17.03 224.87-19.95 227.5-21.68 230.12-23.4 233.22-23.4L233.22-23.4Q237.12-23.4 239.12-21.43 241.12-19.45 241.12-15.6L241.12-15.6Q241.12-14.05 240.82-12.95L240.82-12.95 240.17-12.4 226.77-12.4Q226.77-8.1 228.6-5.8 230.42-3.5 233.77-3.5L233.77-3.5Q236.57-3.5 239.77-5L239.77-5 240.07-4.85 240.77-2.95Q238.97-1.6 236.67-0.5 234.37 0.6 232.72 0.6L232.72 0.6ZM226.87-14.65L234.92-15.05Q235.57-15.1 235.8-15.35 236.02-15.6 236.02-16.3L236.02-16.3Q236.02-18.2 235.07-19.23 234.12-20.25 232.32-20.25L232.32-20.25Q230.17-20.25 228.7-18.78 227.22-17.3 226.87-14.65L226.87-14.65ZM251.47 0.6Q249.77 0.6 248.4 0.33 247.02 0.05 246.22-0.23 245.42-0.5 245.22-0.6L245.22-0.6 245.02-1Q245.17-1.95 245.37-4.17 245.57-6.4 245.62-7.65L245.62-7.65 247.82-7.9Q247.87-4.95 248.97-3.65 250.07-2.35 252.52-2.35L252.52-2.35Q254.17-2.35 255.32-3.1 256.47-3.85 256.47-4.95L256.47-4.95Q256.47-6.1 255.37-7.03 254.27-7.95 251.02-9.6L251.02-9.6Q248.12-11.05 246.8-12.58 245.47-14.1 245.47-16.05L245.47-16.05Q245.47-18.15 246.72-19.83 247.97-21.5 250.2-22.45 252.42-23.4 255.17-23.4L255.17-23.4Q256.47-23.4 257.65-23.2 258.82-23 259.55-22.8 260.27-22.6 260.47-22.55L260.47-22.55 260.62-22.2Q260.52-21.7 260.17-19.85 259.82-18 259.67-15.95L259.67-15.95 257.37-15.75Q257.37-15.9 257.42-16.25 257.47-16.6 257.47-16.95L257.47-16.95Q257.47-18.75 256.55-19.58 255.62-20.4 253.67-20.4L253.67-20.4Q252.12-20.4 251.07-19.68 250.02-18.95 250.02-17.9L250.02-17.9Q250.02-16.8 250.95-15.88 251.87-14.95 253.97-13.85L253.97-13.85Q256.77-12.45 258.32-11.35 259.87-10.25 260.5-9.18 261.12-8.1 261.12-6.7L261.12-6.7Q261.12-4.75 259.82-3.08 258.52-1.4 256.3-0.4 254.07 0.6 251.47 0.6L251.47 0.6ZM294.82 0.6Q290.67 0.6 290.12-2.95L290.12-2.95 289.77-3.1Q284.67 0.45 283.72 0.45L283.72 0.45Q279.37 0.45 276.74-2.5 274.12-5.45 274.12-10.3L274.12-10.3Q274.12-13.9 275.79-16.9 277.47-19.9 280.34-21.63 283.22-23.35 286.67-23.35L286.67-23.35Q287.92-23.35 289.72-23.2L289.72-23.2 289.72-30.65Q289.72-32.1 289.27-32.75 288.82-33.4 287.77-33.4L287.77-33.4Q287.42-33.4 287.02-33.33 286.62-33.25 286.52-33.2L286.52-33.2 286.77-35.55Q289.27-35.85 291.92-36.38 294.57-36.9 295.32-37.1L295.32-37.1 295.67-36.35Q295.07-35.45 294.62-26.2 294.17-16.95 294.17-5.85L294.17-5.85Q294.17-4.85 294.67-4.25 295.17-3.65 296.02-3.65L296.02-3.65Q296.67-3.65 297.27-3.9 297.87-4.15 298.24-4.4 298.62-4.65 298.72-4.75L298.72-4.75 299.47-3.8Q299.32-3.5 298.67-2.6 298.02-1.7 296.99-0.73 295.97 0.25 294.82 0.6L294.82 0.6ZM285.02-3.45Q285.97-3.45 287.02-3.95 288.07-4.45 288.79-4.98 289.52-5.5 289.72-5.65L289.72-5.65 289.72-18.85Q289.57-18.95 289.02-19.2 288.47-19.45 287.52-19.68 286.57-19.9 285.37-19.9L285.37-19.9Q282.47-19.9 280.79-17.8 279.12-15.7 279.12-12.05L279.12-12.05Q279.12-9.6 279.89-7.63 280.67-5.65 281.99-4.55 283.32-3.45 285.02-3.45L285.02-3.45ZM311.86 0.6Q306.86 0.6 303.91-2.48 300.96-5.55 300.96-10.65L300.96-10.65Q300.96-14.1 302.49-17.03 304.01-19.95 306.64-21.68 309.26-23.4 312.36-23.4L312.36-23.4Q316.26-23.4 318.26-21.43 320.26-19.45 320.26-15.6L320.26-15.6Q320.26-14.05 319.96-12.95L319.96-12.95 319.31-12.4 305.91-12.4Q305.91-8.1 307.74-5.8 309.56-3.5 312.91-3.5L312.91-3.5Q315.71-3.5 318.91-5L318.91-5 319.21-4.85 319.91-2.95Q318.11-1.6 315.81-0.5 313.51 0.6 311.86 0.6L311.86 0.6ZM306.01-14.65L314.06-15.05Q314.71-15.1 314.94-15.35 315.16-15.6 315.16-16.3L315.16-16.3Q315.16-18.2 314.21-19.23 313.26-20.25 311.46-20.25L311.46-20.25Q309.31-20.25 307.84-18.78 306.36-17.3 306.01-14.65L306.01-14.65ZM347.66-2Q349.01-2.4 349.61-3.1 350.21-3.8 350.21-5.05L350.21-5.05 350.41-14.4Q350.41-16.75 349.46-17.98 348.51-19.2 346.66-19.2L346.66-19.2Q344.36-19.2 341.31-16.95L341.31-16.95Q341.16-13.8 341.11-12.85L341.11-12.85Q340.81-6.45 340.81-5.1L340.81-5.1Q340.81-3.7 341.18-3.13 341.56-2.55 342.51-2.55L342.51-2.55Q342.96-2.55 343.43-2.6 343.91-2.65 344.06-2.65L344.06-2.65 344.16-2.45 343.71 0.15Q343.21 0.1 341.78 0.05 340.36 0 338.81 0L338.81 0Q337.36 0 335.63 0.13 333.91 0.25 333.41 0.3L333.41 0.3 333.76-2.25Q335.21-2.45 335.78-3.08 336.36-3.7 336.36-5.1L336.36-5.1 336.36-16.6Q336.36-18.3 335.83-18.95 335.31-19.6 333.96-19.6L333.96-19.6 333.36-19.6 333.16-19.85 333.36-21.9Q335.81-22.25 338.23-22.78 340.66-23.3 341.36-23.45L341.36-23.45 341.71-23Q341.61-22.7 341.41-21.7 341.21-20.7 341.16-19.65L341.16-19.65 341.31-19.45Q342.71-20.6 345.01-22 347.31-23.4 348.26-23.4L348.26-23.4Q351.61-23.4 353.51-21.68 355.41-19.95 355.41-16.95L355.41-16.95Q355.41-15.75 355.06-12.05L355.06-12.05Q354.61-6.2 354.61-5.15L354.61-5.15Q354.61-3.75 355.01-3.13 355.41-2.5 356.31-2.5L356.31-2.5Q356.81-2.5 357.28-2.55 357.76-2.6 357.96-2.6L357.96-2.6 358.06-2.4 357.61 0.15Q357.11 0.1 355.71 0.05 354.31 0 352.76 0L352.76 0Q351.46 0 349.71 0.2 347.96 0.4 347.41 0.5L347.41 0.5 347.66-2ZM378.01 0.6Q373.71 0.6 373.31-3.35L373.31-3.35 373.01-3.45Q371.26-1.7 369.78-0.65 368.31 0.4 367.51 0.4L367.51 0.4Q364.66 0.4 362.78-1.5 360.91-3.4 360.91-6.25L360.91-6.25Q360.91-7.8 361.66-8.9 362.41-10 363.66-10.35L363.66-10.35 373.21-12.8 373.26-14.55Q373.26-16.9 372.11-18.2 370.96-19.5 368.91-19.5L368.91-19.5Q367.56-19.5 366.01-18.85 364.46-18.2 362.96-17.05L362.96-17.05 362.66-17.25 361.91-19.75Q364.26-21.15 366.83-22.28 369.41-23.4 370.56-23.4L370.56-23.4Q374.21-23.4 376.16-21.63 378.11-19.85 378.11-16.8L378.11-16.8Q378.11-16.2 377.71-12.3L377.71-12.3Q377.16-7 377.16-5.85L377.16-5.85Q377.16-4.85 377.66-4.25 378.16-3.65 379.11-3.65L379.11-3.65Q379.81-3.65 380.58-4 381.36-4.35 381.81-4.75L381.81-4.75 382.56-3.8Q381.76-2.4 380.51-1.1 379.26 0.2 378.01 0.6L378.01 0.6ZM368.81-3.6Q369.66-3.6 370.81-4.17 371.96-4.75 372.91-5.6L372.91-5.6 373.11-10.5 367.01-8.75Q365.66-8.3 365.66-6.85L365.66-6.85Q365.66-5.45 366.53-4.53 367.41-3.6 368.81-3.6L368.81-3.6ZM405.1 0.6Q400.95 0.6 400.4-2.95L400.4-2.95 400.05-3.1Q394.95 0.45 394 0.45L394 0.45Q389.65 0.45 387.03-2.5 384.4-5.45 384.4-10.3L384.4-10.3Q384.4-13.9 386.08-16.9 387.75-19.9 390.63-21.63 393.5-23.35 396.95-23.35L396.95-23.35Q398.2-23.35 400-23.2L400-23.2 400-30.65Q400-32.1 399.55-32.75 399.1-33.4 398.05-33.4L398.05-33.4Q397.7-33.4 397.3-33.33 396.9-33.25 396.8-33.2L396.8-33.2 397.05-35.55Q399.55-35.85 402.2-36.38 404.85-36.9 405.6-37.1L405.6-37.1 405.95-36.35Q405.35-35.45 404.9-26.2 404.45-16.95 404.45-5.85L404.45-5.85Q404.45-4.85 404.95-4.25 405.45-3.65 406.3-3.65L406.3-3.65Q406.95-3.65 407.55-3.9 408.15-4.15 408.53-4.4 408.9-4.65 409-4.75L409-4.75 409.75-3.8Q409.6-3.5 408.95-2.6 408.3-1.7 407.28-0.73 406.25 0.25 405.1 0.6L405.1 0.6ZM395.3-3.45Q396.25-3.45 397.3-3.95 398.35-4.45 399.08-4.98 399.8-5.5 400-5.65L400-5.65 400-18.85Q399.85-18.95 399.3-19.2 398.75-19.45 397.8-19.68 396.85-19.9 395.65-19.9L395.65-19.9Q392.75-19.9 391.08-17.8 389.4-15.7 389.4-12.05L389.4-12.05Q389.4-9.6 390.18-7.63 390.95-5.65 392.28-4.55 393.6-3.45 395.3-3.45L395.3-3.45ZM428.55 0.6Q424.25 0.6 423.85-3.35L423.85-3.35 423.55-3.45Q421.8-1.7 420.33-0.65 418.85 0.4 418.05 0.4L418.05 0.4Q415.2 0.4 413.33-1.5 411.45-3.4 411.45-6.25L411.45-6.25Q411.45-7.8 412.2-8.9 412.95-10 414.2-10.35L414.2-10.35 423.75-12.8 423.8-14.55Q423.8-16.9 422.65-18.2 421.5-19.5 419.45-19.5L419.45-19.5Q418.1-19.5 416.55-18.85 415-18.2 413.5-17.05L413.5-17.05 413.2-17.25 412.45-19.75Q414.8-21.15 417.38-22.28 419.95-23.4 421.1-23.4L421.1-23.4Q424.75-23.4 426.7-21.63 428.65-19.85 428.65-16.8L428.65-16.8Q428.65-16.2 428.25-12.3L428.25-12.3Q427.7-7 427.7-5.85L427.7-5.85Q427.7-4.85 428.2-4.25 428.7-3.65 429.65-3.65L429.65-3.65Q430.35-3.65 431.13-4 431.9-4.35 432.35-4.75L432.35-4.75 433.1-3.8Q432.3-2.4 431.05-1.1 429.8 0.2 428.55 0.6L428.55 0.6ZM419.35-3.6Q420.2-3.6 421.35-4.17 422.5-4.75 423.45-5.6L423.45-5.6 423.65-10.5 417.55-8.75Q416.2-8.3 416.2-6.85L416.2-6.85Q416.2-5.45 417.08-4.53 417.95-3.6 419.35-3.6L419.35-3.6ZM439.05-10.55L438.4-11.05 437.75-33.3 438.2-33.95 443.45-34.95 444.05-34.25 441.25-11 439.05-10.55ZM439.4 0.55Q437.85 0.55 437.02-0.35 436.2-1.25 436.2-2.65L436.2-2.65Q436.2-4.2 437.17-5.2 438.15-6.2 439.75-6.2L439.75-6.2Q441.25-6.2 442.1-5.3 442.95-4.4 442.95-2.95L442.95-2.95Q442.95-1.4 441.97-0.43 441 0.55 439.4 0.55L439.4 0.55Z" opacity="1" transform="matrix(1,0,0,1,0,0)" fill="#454545" class="slogan-text-1" data-fill-palette-color="secondary" id="text-1"></path></svg></g></svg></g></svg></g></svg></g><g transform="matrix(1,0,0,1,65.16458844256796,0)"><svg viewBox="0 0 94.79082311486403 100.30636265233485" height="100.30636265233485" width="94.79082311486403"><g><svg xmlns="http://www.w3.org/2000/svg" xmlns:xlink="http://www.w3.org/1999/xlink" version="1.1" x="0" y="0" viewBox="17.680999755859375 12.867000579833984 60.306007385253906 63.814998626708984" enable-background="new 0 0 100 100" xml:space="preserve" height="100.30636265233485" width="94.79082311486403" class="icon-icon-0" data-fill-palette-color="accent" id="icon-0"><g fill="#454545" data-fill-palette-color="accent"><path d="M50.529 50.359c-0.036 0-0.073-0.002-0.11-0.008-0.108-0.015-1.297-0.191-2.584-0.709-1.287 0.518-2.476 0.694-2.584 0.709-0.428 0.067-0.824-0.237-0.885-0.665-0.061-0.428 0.237-0.825 0.665-0.886 0.013-0.002 0.396-0.062 0.937-0.202-0.865-0.681-1.508-1.606-1.508-2.857 0-2.303 1.325-3.791 3.375-3.791 2.113 0 3.375 1.928 3.375 3.791 0 1.251-0.645 2.179-1.509 2.858 0.541 0.14 0.923 0.199 0.937 0.201 0.429 0.061 0.727 0.456 0.666 0.885C51.249 50.077 50.913 50.359 50.529 50.359zM47.835 43.517c-1.632 0-1.808 1.556-1.808 2.225 0 1.005 0.84 1.71 1.804 2.188 0.967-0.479 1.812-1.184 1.812-2.188C49.643 44.817 49.082 43.517 47.835 43.517z" fill="#454545" data-fill-palette-color="accent"></path></g><g fill="#454545" data-fill-palette-color="accent"><path d="M51.113 62.933c-0.427 0-0.776-0.341-0.783-0.77-0.007-0.386-0.118-6.92 0.198-11.79-0.084-0.015-0.137-0.025-0.156-0.029-0.424-0.086-0.697-0.499-0.611-0.923 0.084-0.413 0.477-0.688 0.891-0.618 0.127-1.339 0.3-2.441 0.532-3.088 0.63-1.751 2.565-2.662 4.318-2.034 0.849 0.305 1.527 0.923 1.912 1.738s0.428 1.732 0.123 2.581c-0.837 2.324-3.618 2.613-5.452 2.538-0.242 3.9-0.231 9.159-0.188 11.598 0.008 0.433-0.337 0.789-0.77 0.797C51.122 62.933 51.118 62.933 51.113 62.933zM52.204 48.969c1.409 0.06 3.365-0.128 3.858-1.5 0.163-0.454 0.14-0.944-0.066-1.382s-0.569-0.769-1.024-0.932c-0.929-0.336-1.976 0.152-2.313 1.09C52.465 46.783 52.316 47.753 52.204 48.969z" fill="#454545" data-fill-palette-color="accent"></path></g><g fill="#454545" data-fill-palette-color="accent"><path d="M44.557 62.953c-0.005 0-0.01 0-0.015 0-0.433-0.008-0.777-0.364-0.769-0.797 0.043-2.441 0.054-7.712-0.189-11.613-1.844 0.094-4.616-0.198-5.452-2.523-0.305-0.849-0.261-1.765 0.123-2.58 0.384-0.816 1.063-1.434 1.912-1.738 0.85-0.304 1.767-0.262 2.581 0.123 0.815 0.384 1.433 1.063 1.738 1.912 0.231 0.643 0.403 1.736 0.53 3.065 0.408-0.066 0.807 0.201 0.893 0.614 0.088 0.424-0.184 0.838-0.608 0.927-0.02 0.004-0.075 0.015-0.16 0.03 0.317 4.872 0.207 11.424 0.199 11.811C45.333 62.611 44.983 62.953 44.557 62.953zM41.311 45.068c-0.207 0-0.414 0.035-0.613 0.107-0.455 0.163-0.819 0.494-1.024 0.931-0.206 0.438-0.229 0.929-0.066 1.384 0.495 1.376 2.451 1.547 3.857 1.486-0.112-1.209-0.26-2.174-0.453-2.711-0.164-0.454-0.494-0.818-0.931-1.024C41.836 45.126 41.574 45.068 41.311 45.068z" fill="#454545" data-fill-palette-color="accent"></path></g><g fill="#454545" data-fill-palette-color="accent"><path d="M47.835 64.426c-2.599 0-5.119-0.581-7.488-1.728-0.396-0.192-0.647-0.593-0.647-1.033v-3.107c-5.634-3.014-9.104-8.766-9.104-15.182 0-9.506 7.733-17.239 17.239-17.239s17.239 7.733 17.239 17.239c0 6.417-3.47 12.17-9.104 15.182v3.107c0 0.44-0.252 0.842-0.647 1.033C52.952 63.845 50.433 64.426 47.835 64.426zM41.994 60.928c3.728 1.598 7.95 1.598 11.682 0v-3.073c0-0.44 0.252-0.842 0.648-1.033 5.215-2.521 8.455-7.674 8.455-13.445 0-8.24-6.704-14.944-14.944-14.944s-14.944 6.704-14.944 14.944c0 5.771 3.24 10.923 8.456 13.445 0.396 0.191 0.648 0.593 0.648 1.033V60.928z" fill="#454545" data-fill-palette-color="accent"></path></g><g fill="#454545" data-fill-palette-color="accent"><path d="M47.983 67.717c-2.327 0-4.628-0.378-6.838-1.124-0.513-0.173-0.788-0.729-0.615-1.241 0.173-0.511 0.729-0.788 1.241-0.614 4.018 1.354 8.411 1.354 12.425 0 0.519-0.173 1.068 0.104 1.241 0.614 0.173 0.513-0.103 1.068-0.614 1.241C52.612 67.339 50.311 67.717 47.983 67.717z" fill="#454545" data-fill-palette-color="accent"></path></g><g fill="#454545" data-fill-palette-color="accent"><path d="M47.984 70.579c-1.767 0-3.542-0.227-5.275-0.673-0.524-0.135-0.839-0.669-0.705-1.192 0.135-0.523 0.667-0.841 1.193-0.704 3.162 0.813 6.457 0.81 9.6-0.008 0.516-0.138 1.057 0.178 1.194 0.702 0.136 0.523-0.179 1.058-0.702 1.194C51.551 70.35 49.766 70.579 47.984 70.579z" fill="#454545" data-fill-palette-color="accent"></path></g><g fill="#454545" data-fill-palette-color="accent"><path d="M47.835 76.682c-2.315 0-4.199-1.884-4.199-4.2 0-0.271 0.031-0.546 0.098-0.864 0.108-0.514 0.596-0.857 1.12-0.765 2.073 0.345 3.9 0.362 5.987 0.043 0.521-0.072 1.012 0.269 1.109 0.786 0.04 0.208 0.085 0.486 0.085 0.8C52.035 74.798 50.151 76.682 47.835 76.682zM45.643 72.942c0.213 1.016 1.115 1.78 2.192 1.78 1.066 0 1.961-0.749 2.187-1.748C48.535 73.127 47.127 73.115 45.643 72.942z" fill="#454545" data-fill-palette-color="accent"></path></g><g fill="#454545" data-fill-palette-color="accent"><path d="M24.833 44.25h-5.922c-0.68 0-1.23-0.551-1.23-1.23s0.551-1.23 1.23-1.23h5.922c0.68 0 1.23 0.551 1.23 1.23S25.513 44.25 24.833 44.25z" fill="#454545" data-fill-palette-color="accent"></path></g><g fill="#454545" data-fill-palette-color="accent"><path d="M76.757 44.25h-5.92c-0.68 0-1.23-0.551-1.23-1.23s0.551-1.23 1.23-1.23h5.92c0.68 0 1.23 0.551 1.23 1.23S77.437 44.25 76.757 44.25z" fill="#454545" data-fill-palette-color="accent"></path></g><g fill="#454545" data-fill-palette-color="accent"><path d="M47.835 21.248c-0.68 0-1.23-0.551-1.23-1.23v-5.921c0-0.68 0.551-1.23 1.23-1.23s1.23 0.551 1.23 1.23v5.921C49.065 20.697 48.515 21.248 47.835 21.248z" fill="#454545" data-fill-palette-color="accent"></path></g><g fill="#454545" data-fill-palette-color="accent"><path d="M27.384 64.701c-0.315 0-0.63-0.12-0.87-0.36-0.48-0.48-0.48-1.26 0-1.74l4.186-4.187c0.48-0.48 1.26-0.48 1.74 0s0.48 1.26 0 1.74l-4.186 4.187C28.014 64.581 27.699 64.701 27.384 64.701z" fill="#454545" data-fill-palette-color="accent"></path></g><g fill="#454545" data-fill-palette-color="accent"><path d="M64.101 27.985c-0.314 0-0.63-0.12-0.87-0.36-0.48-0.48-0.48-1.26 0-1.74l4.186-4.187c0.48-0.479 1.26-0.48 1.74 0s0.48 1.26 0 1.74l-4.186 4.187C64.73 27.865 64.416 27.985 64.101 27.985z" fill="#454545" data-fill-palette-color="accent"></path></g><g fill="#454545" data-fill-palette-color="accent"><path d="M31.569 27.985c-0.315 0-0.63-0.12-0.87-0.36l-4.186-4.188c-0.48-0.48-0.48-1.26 0-1.74s1.26-0.48 1.74 0l4.186 4.188c0.48 0.48 0.48 1.26 0 1.74C32.199 27.865 31.884 27.985 31.569 27.985z" fill="#454545" data-fill-palette-color="accent"></path></g><g fill="#454545" data-fill-palette-color="accent"><path d="M68.286 64.702c-0.315 0-0.63-0.12-0.87-0.36l-4.186-4.187c-0.48-0.48-0.48-1.26 0-1.74 0.481-0.482 1.261-0.48 1.74 0l4.186 4.187c0.48 0.48 0.48 1.26 0 1.74C68.916 64.582 68.601 64.702 68.286 64.702z" fill="#454545" data-fill-palette-color="accent"></path></g></svg></g></svg></g><g></g></svg></g></svg></g></svg></g><defs></defs></svg><rect width="320" height="360" fill="none" stroke="none" visibility="hidden"></rect></g></svg></g></svg>